<?xml version="1.0" standalone="no"?>
<!DOCTYPE svg PUBLIC "-//W3C//DTD SVG 20010904//EN"
 "http://www.w3.org/TR/2001/REC-SVG-20010904/DTD/svg10.dtd">
<svg version="1.0" xmlns="http://www.w3.org/2000/svg"
 width="300.000000pt" height="168.000000pt" viewBox="0 0 300.000000 168.000000"
 preserveAspectRatio="xMidYMid meet">

<g transform="translate(0.000000,168.000000) scale(0.100000,-0.100000)"
fill="#000000" stroke="none">
<path d="M0 840 l0 -840 140 0 140 0 0 346 c0 200 4 343 9 340 5 -4 5 10 0 32
-5 20 -9 102 -8 182 1 80 1 288 0 463 l-1 317 -140 0 -140 0 0 -840z"/>
<path d="M2650 1008 c0 -426 -4 -668 -10 -658 -7 12 -12 12 -22 2 -9 -9 -9
-12 3 -12 12 0 12 -2 -1 -11 -12 -9 -11 -10 8 -6 20 5 22 1 22 -37 0 -34 -5
-45 -22 -55 l-23 -12 23 5 c22 4 23 2 22 -47 -1 -29 -1 -80 -1 -114 l1 -63
175 0 175 0 0 840 0 840 -175 0 -175 0 0 -672z"/>
<path d="M1268 1603 c6 -2 18 -2 25 0 6 3 1 5 -13 5 -14 0 -19 -2 -12 -5z"/>
<path d="M1528 1603 c6 -2 18 -2 25 0 6 3 1 5 -13 5 -14 0 -19 -2 -12 -5z"/>
<path d="M2280 1426 c0 -2 8 -10 18 -17 15 -13 16 -12 3 4 -13 16 -21 21 -21
13z"/>
<path d="M480 1363 l-55 -58 58 55 c31 30 57 56 57 57 0 8 -10 -1 -60 -54z"/>
<path d="M2195 1340 c10 -11 20 -20 23 -20 3 0 -3 9 -13 20 -10 11 -20 20 -23
20 -3 0 3 -9 13 -20z"/>
<path d="M575 1308 l-40 -43 43 40 c39 36 47 45 39 45 -2 0 -21 -19 -42 -42z"/>
<path d="M2370 1336 c0 -2 8 -10 18 -17 15 -13 16 -12 3 4 -13 16 -21 21 -21
13z"/>
<path d="M629 1262 c-27 -28 -28 -52 -2 -52 10 0 12 -6 8 -20 -5 -16 -3 -19
10 -13 15 5 16 1 10 -35 -6 -35 -4 -42 9 -42 24 0 20 -16 -21 -83 -81 -133
-100 -224 -67 -319 19 -57 74 -123 125 -149 50 -25 130 -40 170 -32 l31 6 -47
18 c-62 23 -88 49 -116 112 -31 72 -31 173 0 244 26 59 49 82 111 114 25 12
47 24 49 25 10 8 -95 157 -129 181 -25 18 -38 35 -37 48 2 16 -5 20 -38 21
-32 2 -46 -4 -66 -24z m41 -42 c0 -5 -4 -10 -10 -10 -5 0 -10 5 -10 10 0 6 5
10 10 10 6 0 10 -4 10 -10z"/>
<path d="M2260 1276 c0 -2 8 -10 18 -17 15 -13 16 -12 3 4 -13 16 -21 21 -21
13z"/>
<path d="M436 1123 c-6 -14 -5 -15 5 -6 7 7 10 15 7 18 -3 3 -9 -2 -12 -12z"/>
<path d="M1071 1043 c6 -15 8 -42 4 -59 -4 -22 -1 -35 11 -45 65 -54 54 -195
-26 -316 l-31 -48 44 47 c24 25 61 79 82 119 48 92 59 191 27 249 -21 38 -75
80 -103 80 -16 0 -17 -4 -8 -27z"/>
<path d="M1310 933 c0 -41 1 -43 30 -43 17 0 30 5 30 10 0 6 -9 10 -20 10 -27
0 -25 18 3 23 l22 4 -22 2 c-28 1 -31 21 -3 21 11 0 20 4 20 9 0 5 -13 8 -30
7 -28 -1 -30 -3 -30 -43z"/>
<path d="M1401 932 c1 -39 2 -43 9 -22 l8 25 7 -22 c4 -13 11 -23 15 -23 4 0
11 10 15 23 l8 22 4 -22 c8 -40 18 -25 15 21 -3 33 -7 43 -18 39 -8 -3 -14
-11 -14 -19 0 -8 -4 -14 -10 -14 -5 0 -10 6 -10 14 0 8 -7 16 -15 20 -12 4
-15 -4 -14 -42z"/>
<path d="M1510 934 c0 -45 0 -45 33 -42 28 3 32 7 34 35 1 36 -2 40 -40 47
-26 4 -27 3 -27 -40z m40 16 c0 -5 -4 -10 -10 -10 -5 0 -10 5 -10 10 0 6 5 10
10 10 6 0 10 -4 10 -10z m5 -30 c3 -5 -1 -10 -10 -10 -9 0 -13 5 -10 10 3 6 8
10 10 10 2 0 7 -4 10 -10z"/>
<path d="M1606 973 c-8 -8 -8 -46 0 -67 4 -10 18 -16 35 -16 22 0 30 6 35 24
7 30 2 56 -11 59 -5 1 -11 -13 -13 -30 -4 -41 -22 -44 -22 -4 0 30 -12 46 -24
34z"/>
<path d="M1704 968 c-3 -4 0 -8 5 -8 6 0 11 -16 11 -35 0 -24 5 -35 15 -35 10
0 15 11 15 35 0 19 5 35 10 35 6 0 10 4 10 9 0 12 -59 11 -66 -1z"/>
<path d="M1951 966 c-7 -8 -11 -27 -9 -43 4 -33 44 -45 64 -18 30 41 -23 100
-55 61z m39 -37 c0 -10 -7 -19 -15 -19 -15 0 -21 31 -9 43 11 10 24 -3 24 -24z"/>
<path d="M2043 964 c-4 -11 2 -23 18 -35 13 -10 21 -21 17 -25 -4 -4 -14 -1
-23 6 -12 10 -15 10 -15 -4 0 -11 9 -16 30 -16 25 0 30 4 30 25 0 15 -6 25
-14 25 -8 0 -18 5 -22 11 -4 8 0 9 15 4 24 -7 29 10 5 19 -25 10 -34 7 -41
-10z"/>
<path d="M1790 930 c0 -29 4 -40 15 -40 11 0 15 11 15 40 0 29 -4 40 -15 40
-11 0 -15 -11 -15 -40z"/>
<path d="M1840 930 c0 -41 1 -41 33 -38 29 3 32 6 32 38 0 32 -3 35 -32 38
-32 3 -33 3 -33 -38z m50 -1 c0 -10 -4 -19 -10 -19 -5 0 -10 12 -10 26 0 14 4
23 10 19 6 -3 10 -15 10 -26z"/>
<path d="M383 875 c0 -38 2 -53 4 -32 2 20 2 52 0 70 -2 17 -4 1 -4 -38z"/>
<path d="M1217 870 c-9 -73 -48 -153 -117 -236 -67 -80 -63 -94 15 -68 57 20
105 66 105 102 l-1 27 -20 -27 c-21 -29 -117 -103 -124 -96 -2 2 21 23 51 47
109 86 160 203 117 271 l-20 32 -6 -52z"/>
<path d="M2563 870 c0 -30 2 -43 4 -27 2 15 2 39 0 55 -2 15 -4 2 -4 -28z"/>
<path d="M1512 700 c0 -14 2 -19 5 -12 2 6 2 18 0 25 -3 6 -5 1 -5 -13z"/>
<path d="M2182 690 c0 -19 2 -27 5 -17 2 9 2 25 0 35 -3 9 -5 1 -5 -18z"/>
<path d="M1562 684 c9 -9 21 -15 27 -13 6 2 -2 10 -17 17 -25 11 -25 11 -10
-4z"/>
<path d="M1301 674 c0 -11 3 -14 6 -6 3 7 2 16 -1 19 -3 4 -6 -2 -5 -13z"/>
<path d="M1520 664 c0 -17 27 -37 42 -31 9 3 6 7 -7 13 -11 4 -23 12 -27 18
-5 8 -8 8 -8 0z"/>
<path d="M1348 633 c7 -3 16 -2 19 1 4 3 -2 6 -13 5 -11 0 -14 -3 -6 -6z"/>
<path d="M2228 633 c7 -3 16 -2 19 1 4 3 -2 6 -13 5 -11 0 -14 -3 -6 -6z"/>
<path d="M2350 531 c0 -12 5 -21 10 -21 6 0 10 6 10 14 0 8 -4 18 -10 21 -5 3
-10 -3 -10 -14z"/>
<path d="M2294 532 c-7 -4 -8 -15 -3 -27 4 -11 8 -14 8 -7 1 8 6 10 14 6 9 -6
9 -5 0 8 -7 8 -10 18 -6 21 9 9 1 9 -13 -1z"/>
<path d="M2391 524 c0 -11 3 -14 6 -6 3 7 2 16 -1 19 -3 4 -6 -2 -5 -13z"/>
<path d="M2411 524 c0 -11 3 -14 6 -6 3 7 2 16 -1 19 -3 4 -6 -2 -5 -13z"/>
<path d="M1262 510 c0 -14 2 -19 5 -12 2 6 2 18 0 25 -3 6 -5 1 -5 -13z"/>
<path d="M2467 523 c-3 -5 -2 -15 2 -22 7 -10 10 -10 16 -1 4 6 3 16 -3 22 -5
5 -12 6 -15 1z"/>
<path d="M530 495 c13 -14 26 -25 28 -25 3 0 -5 11 -18 25 -13 14 -26 25 -28
25 -3 0 5 -11 18 -25z"/>
<path d="M1192 493 c2 -14 9 -28 16 -29 7 -1 8 0 2 3 -16 7 -12 21 8 26 16 4
16 5 -1 6 -10 0 -15 6 -12 11 3 6 1 10 -5 10 -6 0 -10 -12 -8 -27z"/>
<path d="M1770 505 c-7 -9 -11 -17 -9 -20 3 -2 10 5 17 15 14 24 10 26 -8 5z"/>
<path d="M2253 512 c-6 -4 -7 -15 -2 -27 4 -11 8 -14 8 -7 1 7 6 10 11 7 6 -3
10 1 10 9 0 18 -12 27 -27 18z"/>
<path d="M1331 493 c-1 -13 2 -23 7 -23 4 0 13 10 21 23 13 20 13 21 -1 9 -13
-10 -17 -10 -21 0 -3 7 -6 3 -6 -9z"/>
<path d="M1434 495 c-3 -8 -4 -20 -1 -27 4 -8 6 -6 6 5 1 9 6 17 11 17 6 0 10
5 10 10 0 15 -20 12 -26 -5z"/>
<path d="M1480 468 c-3 -26 -1 -43 3 -39 5 5 7 26 5 47 l-3 39 -5 -47z"/>
<path d="M1515 499 c-4 -6 -4 -13 -1 -16 3 -4 6 -1 6 6 0 8 6 11 16 7 8 -3 12
-2 9 4 -8 13 -22 13 -30 -1z"/>
<path d="M1560 483 c0 -21 3 -24 9 -14 5 8 7 20 4 28 -8 21 -13 15 -13 -14z"/>
<path d="M1722 485 c0 -16 2 -22 5 -12 2 9 2 23 0 30 -3 6 -5 -1 -5 -18z"/>
<path d="M1815 499 c-4 -6 -4 -13 -1 -16 3 -4 6 -1 6 6 0 8 6 11 16 7 8 -3 12
-2 9 4 -8 13 -22 13 -30 -1z"/>
<path d="M1860 489 c0 -11 4 -18 10 -14 5 3 7 12 3 20 -7 21 -13 19 -13 -6z"/>
<path d="M2496 495 c-3 -8 -1 -15 3 -15 5 0 11 7 15 15 3 8 1 15 -3 15 -5 0
-11 -7 -15 -15z"/>
<path d="M2200 482 c0 -5 7 -15 15 -22 8 -7 15 -8 15 -2 0 5 -7 15 -15 22 -8
7 -15 8 -15 2z"/>
<path d="M2327 484 c-9 -3 -15 -9 -12 -14 3 -4 -4 -6 -15 -3 -13 4 -32 -7 -61
-36 -23 -23 -37 -41 -31 -41 6 0 13 4 17 10 3 5 12 7 19 4 8 -3 17 -1 21 5 4
7 -1 8 -12 4 -14 -5 -13 -1 6 20 29 32 34 34 26 8 -4 -12 0 -21 11 -25 15 -6
15 -4 3 11 -12 15 -12 16 4 10 11 -4 16 -3 12 3 -6 9 5 11 73 14 9 1 20 6 25
11 5 6 12 4 20 -6 6 -9 18 -14 24 -12 7 3 23 -3 35 -11 31 -22 47 -20 17 2
-55 40 -133 60 -182 46z"/>
<path d="M2530 475 c-10 -12 -10 -15 4 -15 9 0 16 7 16 15 0 8 -2 15 -4 15 -2
0 -9 -7 -16 -15z"/>
<path d="M425 440 c10 -11 20 -20 23 -20 3 0 -3 9 -13 20 -10 11 -20 20 -23
20 -3 0 3 -9 13 -20z"/>
<path d="M2180 445 c12 -15 30 -12 30 6 0 5 -10 9 -21 9 -18 0 -19 -2 -9 -15z"/>
<path d="M2560 445 c0 -8 5 -15 10 -15 6 0 10 7 10 15 0 8 -4 15 -10 15 -5 0
-10 -7 -10 -15z"/>
<path d="M2155 430 c-9 -15 -1 -23 21 -18 15 3 16 4 1 16 -11 9 -17 10 -22 2z"/>
<path d="M2582 420 c-7 -11 -8 -20 -3 -20 6 0 13 5 16 10 4 6 12 7 18 3 7 -4
6 0 -2 10 -16 21 -14 21 -29 -3z"/>
<path d="M2130 385 c0 -8 7 -15 15 -15 8 0 15 7 15 15 0 8 -7 15 -15 15 -8 0
-15 -7 -15 -15z"/>
<path d="M2210 383 c-14 -7 -19 -13 -12 -13 6 0 12 -11 12 -25 0 -14 5 -25 10
-25 6 0 10 6 10 13 0 9 2 9 8 -1 6 -9 45 -12 155 -11 l147 2 0 35 c0 29 -3 34
-20 29 -11 -3 -20 0 -20 5 0 7 -4 7 -12 1 -12 -9 -215 -10 -241 -1 -6 3 -23
-1 -37 -9z"/>
<path d="M2600 390 c-11 -7 -12 -12 -3 -21 13 -13 33 -4 33 17 0 16 -9 18 -30
4z"/>
<path d="M2115 340 c3 -5 11 -10 16 -10 6 0 7 5 4 10 -3 6 -11 10 -16 10 -6 0
-7 -4 -4 -10z"/>
<path d="M2327 292 c-13 -3 -17 -11 -15 -30 3 -23 8 -27 41 -28 26 -2 40 2 44
12 5 13 8 12 24 -2 18 -16 19 -16 19 2 0 10 -4 24 -8 30 -7 12 -74 22 -105 16z"/>
<path d="M2100 246 c0 -9 30 -14 35 -6 4 6 -3 10 -14 10 -12 0 -21 -2 -21 -4z"/>
<path d="M2123 213 c-19 -7 -15 -33 5 -34 10 0 12 -3 5 -6 -14 -5 -18 -24 -5
-22 26 4 34 -1 22 -16 -7 -9 -11 -18 -8 -20 3 -3 10 1 17 8 14 18 -17 97 -36
90z"/>
<path d="M2454 212 c7 -12 -11 -16 -71 -12 -23 1 -33 -4 -36 -17 -4 -16 -5
-16 -6 0 0 9 -5 17 -10 17 -5 0 -12 -8 -14 -17 -4 -17 -5 -17 -6 -1 -1 14 -9
17 -33 15 -18 -1 -32 -6 -30 -10 1 -4 2 -16 2 -27 0 -11 5 -20 11 -20 6 0 8 9
4 20 -4 11 -2 20 4 20 6 0 11 -8 11 -17 0 -15 9 -18 58 -17 32 0 64 4 70 8 7
4 12 4 12 -1 0 -4 20 -7 43 -5 40 3 44 6 39 28 -6 30 -19 31 -25 2 -4 -20 -4
-20 -6 4 0 15 -6 30 -13 34 -7 4 -8 3 -4 -4z"/>
<path d="M2606 201 c-7 -11 18 -33 27 -24 4 3 7 12 7 20 0 15 -26 18 -34 4z"/>
<path d="M2587 156 c-3 -8 2 -16 13 -19 23 -6 35 19 14 27 -21 8 -21 8 -27 -8z"/>
<path d="M2564 118 c-4 -7 -4 -10 1 -6 4 4 15 2 23 -5 12 -10 14 -9 11 2 -7
20 -26 25 -35 9z"/>
<path d="M2169 104 c-10 -12 -9 -18 4 -30 9 -8 13 -9 7 -2 -6 7 -4 15 7 23 10
8 12 14 6 18 -6 4 -16 0 -24 -9z"/>
<path d="M2126 82 c19 -29 82 -88 87 -81 2 2 -22 28 -52 58 -37 36 -48 44 -35
23z"/>
<path d="M2613 84 c-9 -15 -35 -40 -57 -55 -21 -16 -33 -29 -25 -29 16 0 85
63 100 92 15 28 2 22 -18 -8z"/>
<path d="M2530 85 c-22 -26 4 -43 30 -20 11 10 20 22 20 27 0 14 -37 9 -50 -7z
m30 -9 c0 -11 -19 -15 -25 -6 -3 5 1 10 9 10 9 0 16 -2 16 -4z"/>
<path d="M2200 58 c0 -19 2 -20 10 -8 13 19 13 30 0 30 -5 0 -10 -10 -10 -22z"/>
<path d="M2490 48 c0 -9 5 -20 10 -23 13 -8 13 5 0 25 -8 13 -10 13 -10 -2z"/>
<path d="M2267 44 c-4 -4 -7 -14 -7 -23 0 -11 3 -12 11 -4 6 6 10 16 7 23 -2
6 -7 8 -11 4z"/>
<path d="M2461 41 c-9 -6 -10 -11 -2 -15 6 -4 9 -12 6 -17 -3 -5 0 -6 8 -3 9
3 13 13 10 25 -3 10 -6 19 -7 19 0 0 -7 -4 -15 -9z"/>
<path d="M2321 14 c0 -11 3 -14 6 -6 3 7 2 16 -1 19 -3 4 -6 -2 -5 -13z"/>
<path d="M2390 15 c0 -8 7 -15 16 -15 14 0 14 3 4 15 -7 8 -14 15 -16 15 -2 0
-4 -7 -4 -15z"/>
</g>
</svg>
